<svg width="23" height="24" viewBox="0 0 23 24" fill="none" xmlns="http://www.w3.org/2000/svg">
<path d="M0 9.87396C0 15.3277 4.28117 19.7517 9.55056 19.7517C11.4183 19.7517 13.1385 19.1812 14.5864 18.2133L19.6078 23.4149C19.9913 23.8115 20.5034 24 21.0387 24C22.1738 24 23 23.109 23 21.9469C23 21.4048 22.8099 20.8908 22.4349 20.503L17.4592 15.3285C18.4953 13.7837 19.1011 11.9052 19.1011 9.87396C19.1011 4.42405 14.8199 0 9.55056 0C4.28117 0 0 4.42405 0 9.87396ZM2.72992 9.87396C2.72992 5.9887 5.78665 2.82344 9.54688 2.82344C13.3145 2.82344 16.3676 5.9887 16.3676 9.87396C16.3676 13.763 13.3145 16.9283 9.54688 16.9283C5.78665 16.9283 2.72992 13.763 2.72992 9.87396ZM9.55476 14.6515C9.77277 14.6515 9.93774 14.4808 9.98397 14.2592C10.4884 11.2438 10.7884 10.7222 13.7715 10.3135C14.009 10.282 14.1698 10.1038 14.1698 9.87016C14.1698 9.64413 14.0053 9.47353 13.7715 9.4257C10.8183 9.01705 10.4353 8.48288 9.98397 5.50073C9.94562 5.26275 9.7691 5.10029 9.55476 5.10029C9.33255 5.10029 9.17126 5.25839 9.12503 5.49638C8.61642 8.50463 8.32432 9.00566 5.33375 9.4257C5.10365 9.47353 4.93922 9.64413 4.93922 9.87016C4.93922 10.1038 5.09997 10.2738 5.33008 10.3135C8.3133 10.6824 8.67794 11.2552 9.12503 14.251C9.16338 14.477 9.32835 14.6515 9.55476 14.6515Z" fill="#F1FBFF"/>
</svg>
